<svg width="50" height="50" viewBox="0 0 50 50" fill="none" xmlns="http://www.w3.org/2000/svg">
<path d="M24.9998 35.4167C25.5901 35.4167 26.0853 35.2167 26.4853 34.8167C26.8839 34.418 27.0832 33.9236 27.0832 33.3333V27.0833H33.3853C33.9755 27.0833 34.4616 26.8833 34.8436 26.4833C35.2255 26.0847 35.4165 25.5903 35.4165 25C35.4165 24.4097 35.2165 23.9146 34.8165 23.5146C34.4179 23.116 33.9234 22.9167 33.3332 22.9167H27.0832V16.6146C27.0832 16.0243 26.8839 15.5382 26.4853 15.1562C26.0853 14.7743 25.5901 14.5833 24.9998 14.5833C24.4096 14.5833 23.9151 14.7826 23.5165 15.1812C23.1165 15.5812 22.9165 16.0764 22.9165 16.6667V22.9167H16.6144C16.0241 22.9167 15.538 23.116 15.1561 23.5146C14.7741 23.9146 14.5832 24.4097 14.5832 25C14.5832 25.5903 14.7825 26.0847 15.1811 26.4833C15.5811 26.8833 16.0762 27.0833 16.6665 27.0833H22.9165V33.3854C22.9165 33.9757 23.1165 34.4618 23.5165 34.8437C23.9151 35.2257 24.4096 35.4167 24.9998 35.4167ZM24.9998 45.8333C22.1179 45.8333 19.4096 45.2861 16.8748 44.1917C14.3401 43.0986 12.1353 41.6146 10.2603 39.7396C8.38525 37.8646 6.90123 35.6597 5.80817 33.125C4.71373 30.5903 4.1665 27.8819 4.1665 25C4.1665 22.118 4.71373 19.4097 5.80817 16.875C6.90123 14.3403 8.38525 12.1354 10.2603 10.2604C12.1353 8.38541 14.3401 6.90068 16.8748 5.80624C19.4096 4.71318 22.1179 4.16666 24.9998 4.16666C27.8818 4.16666 30.5901 4.71318 33.1248 5.80624C35.6596 6.90068 37.8644 8.38541 39.7394 10.2604C41.6144 12.1354 43.0984 14.3403 44.1915 16.875C45.2859 19.4097 45.8332 22.118 45.8332 25C45.8332 27.8819 45.2859 30.5903 44.1915 33.125C43.0984 35.6597 41.6144 37.8646 39.7394 39.7396C37.8644 41.6146 35.6596 43.0986 33.1248 44.1917C30.5901 45.2861 27.8818 45.8333 24.9998 45.8333Z" fill="black"/>
</svg>
