<svg width="80" height="80" viewBox="0 0 80 80" fill="none" xmlns="http://www.w3.org/2000/svg">
<path d="M55.6969 22H32.4242V40.6667H9.15143V16.6667H3.33325V56.6667H9.15143V48.6667H61.5151V56.6667H67.3333V32.6667C67.3333 29.8377 66.1073 27.1246 63.925 25.1242C61.7428 23.1238 58.783 22 55.6969 22ZM20.7878 38C23.1024 38 25.3222 37.1572 26.9589 35.6569C28.5956 34.1566 29.5151 32.1218 29.5151 30C29.5151 27.8783 28.5956 25.8435 26.9589 24.3432C25.3222 22.8429 23.1024 22 20.7878 22C18.4732 22 16.2534 22.8429 14.6167 24.3432C12.98 25.8435 12.0605 27.8783 12.0605 30C12.0605 32.1218 12.98 34.1566 14.6167 35.6569C16.2534 37.1572 18.4732 38 20.7878 38Z" fill="#2F2F2F"/>
</svg>
