<svg width="55" height="55" viewBox="0 0 55 55" fill="none" xmlns="http://www.w3.org/2000/svg">
<path d="M25.5521 7.79166L17.0271 21.725C16.0875 23.2375 17.1875 25.2083 18.975 25.2083H36.0021C37.7896 25.2083 38.8896 23.2375 37.95 21.725L29.448 7.79166C29.2454 7.45624 28.9596 7.17882 28.6183 6.98625C28.2771 6.79369 27.8919 6.6925 27.5 6.6925C27.1082 6.6925 26.723 6.79369 26.3817 6.98625C26.0405 7.17882 25.7547 7.45624 25.5521 7.79166V7.79166Z" fill="#333333"/>
<path d="M40.1041 50.4167C45.7996 50.4167 50.4166 45.7996 50.4166 40.1042C50.4166 34.4088 45.7996 29.7917 40.1041 29.7917C34.4087 29.7917 29.7916 34.4088 29.7916 40.1042C29.7916 45.7996 34.4087 50.4167 40.1041 50.4167Z" fill="#333333"/>
<path d="M9.16667 49.2708H22.9167C24.1771 49.2708 25.2083 48.2396 25.2083 46.9792V33.2292C25.2083 31.9687 24.1771 30.9375 22.9167 30.9375H9.16667C7.90625 30.9375 6.875 31.9687 6.875 33.2292V46.9792C6.875 48.2396 7.90625 49.2708 9.16667 49.2708Z" fill="#333333"/>
</svg>
