<svg width="40" height="40" viewBox="0 0 40 40" fill="none" xmlns="http://www.w3.org/2000/svg">
<path d="M20 3.3999C10.8333 3.3999 3.3333 10.8832 3.3333 20.0999C3.3333 28.4332 9.4333 35.3499 17.4 36.5999V24.9332H13.1666V20.0999H17.4V16.4166C17.4 12.2332 19.8833 9.93324 23.7 9.93324C25.5166 9.93324 27.4166 10.2499 27.4166 10.2499V14.3666H25.3166C23.25 14.3666 22.6 15.6499 22.6 16.9666V20.0999H27.2333L26.4833 24.9332H22.6V36.5999C26.5274 35.9796 30.1036 33.9758 32.6832 30.95C35.2627 27.9242 36.6755 24.076 36.6666 20.0999C36.6666 10.8832 29.1666 3.3999 20 3.3999Z" fill="white"/>
</svg>
