<svg width="50" height="50" viewBox="0 0 50 50" fill="none" xmlns="http://www.w3.org/2000/svg">
<path d="M31.2501 22.9167H34.3751V20.3125H37.5001V17.1875H34.3751V14.5833H31.2501V22.9167ZM12.5001 20.3125H29.1667V17.1875H12.5001V20.3125ZM15.6251 31.25H18.7501V22.9167H15.6251V25.5208H12.5001V28.6458H15.6251V31.25ZM20.8334 28.6458H37.5001V25.5208H20.8334V28.6458ZM18.7501 43.75C18.1598 43.75 17.6654 43.55 17.2667 43.15C16.8667 42.7514 16.6667 42.2569 16.6667 41.6667V39.5833H8.33341C7.18758 39.5833 6.20703 39.1757 5.39175 38.3604C4.57508 37.5437 4.16675 36.5625 4.16675 35.4167V10.4167C4.16675 9.27083 4.57508 8.28958 5.39175 7.47292C6.20703 6.65764 7.18758 6.25 8.33341 6.25H41.6667C42.8126 6.25 43.7938 6.65764 44.6105 7.47292C45.4258 8.28958 45.8334 9.27083 45.8334 10.4167V35.4167C45.8334 36.5625 45.4258 37.5437 44.6105 38.3604C43.7938 39.1757 42.8126 39.5833 41.6667 39.5833H33.3334V41.6667C33.3334 42.2569 33.1341 42.7514 32.7355 43.15C32.3355 43.55 31.8404 43.75 31.2501 43.75H18.7501Z" fill="#EE462F"/>
</svg>
