<svg id="Layer_1" data-name="Layer 1" xmlns="http://www.w3.org/2000/svg" viewBox="0 0 595.28 841.89"><defs><style>.cls-1{fill:#e84730;}.cls-2,.cls-3{fill:#fff;}.cls-3{font-size:302px;font-family:BerlinSansFBDemi-Bold, Berlin Sans FB Demi;font-weight:700;}</style></defs><rect class="cls-1" x="195.67" y="417.42" width="337.39" height="187.83"/><polygon class="cls-1" points="364.4 320.04 533.06 417.42 364.4 417.42 195.74 417.42 364.4 320.04"/><rect class="cls-1" x="134.88" y="326.27" width="254.94" height="27.22" transform="translate(-134.77 176.68) rotate(-30)"/><rect class="cls-1" x="455.91" y="212.41" width="27.22" height="254.94" transform="translate(-59.58 576.55) rotate(-60)"/><rect class="cls-2" x="371.33" y="420.73" width="56.69" height="56.69"/><rect class="cls-2" x="298.63" y="420.73" width="56.69" height="56.69"/><rect class="cls-2" x="298.63" y="491.48" width="56.69" height="56.69"/><rect class="cls-2" x="371.33" y="491.48" width="56.69" height="56.69"/><polygon class="cls-1" points="219.56 133.81 35.22 198.71 35.22 604.78 219.56 604.78 219.56 133.81"/><rect class="cls-1" x="62.38" y="257.35" width="127.64" height="19.12"/><rect class="cls-1" x="62.38" y="327.88" width="127.64" height="19.12"/><rect class="cls-1" x="62.38" y="395.86" width="127.64" height="19.12"/><rect class="cls-1" x="62.38" y="463.14" width="127.64" height="19.12"/><text class="cls-3" transform="translate(33.89 592.91)">B</text></svg>