<svg width="50" height="50" viewBox="0 0 50 50" fill="none" xmlns="http://www.w3.org/2000/svg">
<path d="M24.9998 4.16666C13.4998 4.16666 4.1665 13.5 4.1665 25C4.1665 36.5 13.4998 45.8333 24.9998 45.8333C36.4998 45.8333 45.8332 36.5 45.8332 25C45.8332 13.5 36.4998 4.16666 24.9998 4.16666ZM24.9998 38.5417C23.2707 38.5417 21.8748 37.1458 21.8748 35.4167H28.1248C28.1248 37.1458 26.729 38.5417 24.9998 38.5417ZM33.3332 33.3333H16.6665C15.5207 33.3333 14.5832 32.3958 14.5832 31.25C14.5832 30.1042 15.5207 29.1667 16.6665 29.1667V22.9167C16.6665 19.0417 19.3332 15.8125 22.9165 14.875V13.5417C22.9165 12.3958 23.854 11.4583 24.9998 11.4583C26.1457 11.4583 27.0832 12.3958 27.0832 13.5417V14.875C30.6665 15.8125 33.3332 19.0417 33.3332 22.9167V29.1667C34.479 29.1667 35.4165 30.1042 35.4165 31.25C35.4165 32.3958 34.479 33.3333 33.3332 33.3333Z" fill="black"/>
</svg>
