<?xml version="1.0" encoding="utf-8"?>
<!-- Generator: Adobe Illustrator 24.3.0, SVG Export Plug-In . SVG Version: 6.00 Build 0)  -->
<svg version="1.1" id="Layer_1" xmlns="http://www.w3.org/2000/svg" xmlns:xlink="http://www.w3.org/1999/xlink" x="0px" y="0px"
	 viewBox="0 0 50 50" style="enable-background:new 0 0 50 50;" xml:space="preserve">
<style type="text/css">
	.st0{fill:#FFFFFF;}
</style>
<rect x="13.2" y="10.2" class="st0" width="24.2" height="29.5"/>
<path d="M25,4.2C13.5,4.2,4.2,13.5,4.2,25S13.5,45.8,25,45.8S45.8,36.5,45.8,25S36.5,4.2,25,4.2z M25,38.5c-1.7,0-3.1-1.4-3.1-3.1
	h6.2C28.1,37.1,26.7,38.5,25,38.5z M33.3,33.3H16.7c-1.1,0-2.1-0.9-2.1-2.1c0-1.1,0.9-2.1,2.1-2.1v-6.2c0-3.9,2.7-7.1,6.2-8v-1.3
	c0-1.1,0.9-2.1,2.1-2.1c1.1,0,2.1,0.9,2.1,2.1v1.3c3.6,0.9,6.2,4.2,6.2,8v6.2c1.1,0,2.1,0.9,2.1,2.1C35.4,32.4,34.5,33.3,33.3,33.3z
	"/>
</svg>
