<svg id="Layer_1" data-name="Layer 1" xmlns="http://www.w3.org/2000/svg" viewBox="0 0 41.67 41.67"><defs><style>.cls-1{fill:#fff;}</style></defs><rect class="cls-1" x="8.01" y="7.29" width="24.48" height="28.71"/><path d="M25,4.17A20.83,20.83,0,1,0,45.83,25,20.84,20.84,0,0,0,25,4.17Zm0,34.37a3.11,3.11,0,0,1-3.12-3.12h6.25A3.12,3.12,0,0,1,25,38.54Zm8.33-5.21H16.67a2.08,2.08,0,1,1,0-4.16V22.92a8.31,8.31,0,0,1,6.25-8V13.54a2.08,2.08,0,0,1,4.16,0v1.34a8.31,8.31,0,0,1,6.25,8v6.25a2.08,2.08,0,1,1,0,4.16Z" transform="translate(-4.17 -4.17)"/></svg>