<svg width="50" height="50" viewBox="0 0 50 50" fill="none" xmlns="http://www.w3.org/2000/svg">
<circle cx="25" cy="25" r="21" fill="black"/>
<path d="M25 23C23.35 23 21.9375 22.4125 20.7625 21.2375C19.5875 20.0625 19 18.65 19 17C19 15.35 19.5875 13.9375 20.7625 12.7625C21.9375 11.5875 23.35 11 25 11C26.65 11 28.0625 11.5875 29.2375 12.7625C30.4125 13.9375 31 15.35 31 17C31 18.65 30.4125 20.0625 29.2375 21.2375C28.0625 22.4125 26.65 23 25 23ZM16 35C15.175 35 14.469 34.7065 13.882 34.1195C13.294 33.5315 13 32.825 13 32V30.8C13 29.95 13.219 29.1685 13.657 28.4555C14.094 27.7435 14.675 27.2 15.4 26.825C16.95 26.05 18.525 25.4685 20.125 25.0805C21.725 24.6935 23.35 24.5 25 24.5C26.65 24.5 28.275 24.6935 29.875 25.0805C31.475 25.4685 33.05 26.05 34.6 26.825C35.325 27.2 35.906 27.7435 36.343 28.4555C36.781 29.1685 37 29.95 37 30.8V32C37 32.825 36.7065 33.5315 36.1195 34.1195C35.5315 34.7065 34.825 35 34 35H16Z" fill="white"/>
</svg>
