<svg width="50" height="50" viewBox="0 0 50 50" fill="none" xmlns="http://www.w3.org/2000/svg">
<path d="M32.2917 29.1666H30.6459L30.0626 28.6041C31.3645 27.0915 32.3161 25.3099 32.8491 23.3866C33.3822 21.4634 33.4835 19.4461 33.1459 17.4791C32.1667 11.6874 27.3334 7.06245 21.5001 6.35411C19.4493 6.09467 17.3663 6.30781 15.4105 6.97722C13.4548 7.64663 11.6781 8.75457 10.2164 10.2163C8.75469 11.678 7.64675 13.4547 6.97734 15.4104C6.30793 17.3662 6.09479 19.4491 6.35424 21.4999C7.06257 27.3333 11.6876 32.1666 17.4792 33.1458C19.4462 33.4834 21.4635 33.382 23.3868 32.849C25.31 32.316 27.0917 31.3644 28.6042 30.0624L29.1667 30.6458V32.2916L38.0209 41.1458C38.8751 41.9999 40.2709 41.9999 41.1251 41.1458C41.9792 40.2916 41.9792 38.8958 41.1251 38.0416L32.2917 29.1666ZM19.7917 29.1666C14.6042 29.1666 10.4167 24.9791 10.4167 19.7916C10.4167 14.6041 14.6042 10.4166 19.7917 10.4166C24.9792 10.4166 29.1667 14.6041 29.1667 19.7916C29.1667 24.9791 24.9792 29.1666 19.7917 29.1666Z" fill="white"/>
</svg>
