<svg width="55" height="55" viewBox="0 0 55 55" fill="none" xmlns="http://www.w3.org/2000/svg">
<path d="M45.8334 4.58331H9.16671C6.64587 4.58331 4.58337 6.64581 4.58337 9.16665V45.8333C4.58337 47.0489 5.06626 48.2147 5.9258 49.0742C6.78534 49.9338 7.95113 50.4166 9.16671 50.4166H45.8334C48.3771 50.4166 50.4167 48.3771 50.4167 45.8333V9.16665C50.4167 7.95107 49.9338 6.78528 49.0743 5.92574C48.2147 5.0662 47.0489 4.58331 45.8334 4.58331ZM9.16671 13.75L13.75 9.16665H24.9792L9.16671 24.9791V13.75ZM9.16671 31.3958L31.3959 9.16665H42.625L9.16671 42.625V31.3958M45.8334 41.25L41.25 45.8333H30.0209L45.8334 30.0208V41.25ZM45.8334 23.6041L23.6042 45.8333H12.375L45.8334 12.375V23.6041Z" fill="#2F2F2F"/>
</svg>
